<svg id="Laag_1" data-name="Laag 1" xmlns="http://www.w3.org/2000/svg" xmlns:xlink="http://www.w3.org/1999/xlink" viewBox="0 0 450 1008"><defs><style>.cls-1{fill:none;}.cls-2{fill:#fff;}.cls-3{clip-path:url(#clip-path);}</style><clipPath id="clip-path"><path class="cls-1" d="M214.36,569.92c-4.69-3.27-8.41-7.6-12.89-10.7-11.17-7.72-25.55-11.77-39.14-13.88-12.23-1.9-23.8-1.73-31.9-2.23-6.22-.39-5.7-.17-6.3,4.08-.69,4.9-1.35,9.7-1.79,14.38-2.68,29-5.36,58.28-2.14,87.35,6.49,58.59,2.47,78.8-2.39,103.26-8.77,44.1-9.17,74.53-3.88,119,2.87,24.12,5.62,47.25,1.62,72.06-3.18,19.69-18.6,33.38-33.22,44.25-11.46,8.28,11.46,7.92,16.8,8.78,6.85,1.11,12.49,2,18.88-3.16,4.35-3.53,9-4.11,13.36-4.66s8.36-1,7.77-10.63c-1.17-18.75,0-37.21,2.31-55.8,1.53-36.63,15.86-69,19.36-105.54,1.17-12.19.92-22.51.23-34.67-.31-5.47-.3-2.72-3.5-6.35a5.4,5.4,0,0,1-1.09-5.09,125,125,0,0,1,7.5-18.56c3.86-7.84,8-13.93,11.15-22.19,5.9-15.19,6.36-30.61,9.11-46.44,3.83-22,2.07-40,8.92-63.92,1.11-3.91,6.72-2.11,5.6,1.8a166.66,166.66,0,0,0-4,17.73c-2.63,15.24-2.16,12.84,2.47.45q1.62-4.32,3.27-8.67c6.3-16.58,12.76-33.59,16.49-52.16C218.32,571.39,219.26,573.34,214.36,569.92ZM406.23,516a76.39,76.39,0,0,0-4.87,16.05c-2.29,11.72,5.24,4.23,7.4-.35,6.42-15.82,13-13.36,14.62.37a94,94,0,0,1,.7,15.34c-.32,9.8-1.82,19.77-3.16,29.46-2.21,15.92,7.42,16.37,9.61,4.94,2.91-15.13,4-32.56,3.51-49.93-.86-32.11-8.23-58.39-13.94-89.3-3.83-20.74-7-38-17.43-66.6-4.56-9.84-9.25-19.77-14.9-29-6.33-10.32-7.11-19.6-8-29.84-1.24-14.66-4.62-28.89-11.64-41.7-3.07-5.6-1-3.15-5-4.45a5.16,5.16,0,0,1-3.42-5.12c.27-7.46-1.88-17.81-3.77-25.66a94.06,94.06,0,0,0-7.9-22c-9.82-18.42-30.15-23.7-47.07-32.23-17.82-9-41.18-15.24-46.45-37.85-2.39-10.26-2.17-22.11-1.05-30,1.49-10.51,3-11,7.12-12.47,5.64-2,6.25-10.27,7.32-15.54v0c.86-4.19.12-5.24-.6-6.27-1.88-2.69-3.74-5.34-2.53-12.5h0c4.32-31.71-10.74-60.53-42.65-60.53s-47,28.82-42.65,60.53h0a19.29,19.29,0,0,1,.11,7c-1.3,6.28-4.8,4.07-3,12.92,1.17,5.8,2.29,11.3,4.74,13.16,5.1,4,6.76,1.87,9.36,12.92a27,27,0,0,0,9.08,14.83,25.9,25.9,0,0,0,17.48,6.14c6.42-.21,6.73,10.12.31,10.34a35.27,35.27,0,0,1-22.29-7.1c-4.17-3.12-3.29-4.59-4,1.24a54.77,54.77,0,0,1-1.81,8.91c-6.16,20.78-49.83,40.1-67.74,47.28h0c-18.36,7.81-25.22,28.52-29.07,47.47-1.32,6.49-2.71,12.67-2.46,19.42A5.17,5.17,0,0,1,86.9,271c-3.24,1.19-2.24-.26-4.42,4.05-2,3.92-3.46,7.33-5.62,15.63l-.1.42,0,.07C70.22,309.24,74,327.9,62.23,347c-5.65,9.21-10.34,19.14-14.9,29-13,35.82-16.64,67.89-25.09,104.12A264.76,264.76,0,0,0,16,531.91c-.47,17.37.6,34.8,3.51,49.93,2.19,11.43,11.82,11,9.61-4.94-1.39-10-2.42-17.74-2.91-24.71a98.06,98.06,0,0,1,.45-20.09c1.83-14.42,11.62-12.46,16.33.56h0c4,9.77,7.34,6.7,5.75-1.69A73.51,73.51,0,0,0,43.77,516a105.41,105.41,0,0,1-5.64-16.38c-.77-3.54-2.08-11.13,1-13.81,2.65-2.32,2.13.7,3.75-3.94a205.55,205.55,0,0,1,8.41-20.07c5.77-12.66,12.53-25,18.82-37.33,7.63-14.95,14.88-30,18.9-43.44a30.42,30.42,0,0,0-.36-16.79,5.13,5.13,0,0,1,4.85-6.87c3.25.16,1.84,2.44,3.84-2.35,1.28-3.07,2.62-6.15,4-9.25,2.43-5.56,4.73-11.08,7-16.72,4.78-12.07,9.59-24.16,12.48-36.94a101,101,0,0,0,2.79-23.64,4.89,4.89,0,1,1,9.76-.2,111.08,111.08,0,0,1-3.06,26.23q-.6,2.67-1.34,5.47c-2.76,10.51-2.48,6.05,1.06,16.35a211.47,211.47,0,0,1,9,37c1.92,13.18,2.73,28,.82,42.7v0c-1.81,13.29-.87,21.06.35,31.19.44,3.61.9,7.49,1.3,11.9.73,8.1-2.35,6.93,5.61,9.23,44.8,12.91,112.05,11.21,156.68-2.24,6.31-1.9,4.36-.63,4.93-7,.4-4.41.86-8.29,1.3-11.9,1.22-10.13,2.16-17.9.35-31.19v0c-1.93-14.83-1.05-29.83,1-43.09a194.33,194.33,0,0,1,8.53-34.29c4.3-12.27,4.4-6.78,1.11-19.58-2.55-9.9-4.37-20.57-4.18-30.84a4.89,4.89,0,1,1,9.76.2,101,101,0,0,0,2.79,23.64c.77,3.4,1.72,7,2.88,10.82,4.15,13.64,11,30,16.61,42.84.94,2.15,1.88,4.3,2.79,6.44,4.32,10.11,1.66,3.48,7,5.44a5.25,5.25,0,0,1,3,6.59,28.05,28.05,0,0,0-1.36,8.48c-.07,7.19,2.58,13.93,5.17,20.44,8.18,20.57,19.43,39.7,29.13,59.49,2.4,4.92,8.45,18.73,8.76,19.49,1.38,3.29,2.64,6.29,3.72,9.15,2.09,5.58,1.3,1.91,4.19,4.66a5.31,5.31,0,0,1,1.61,3.46c.38,5.24-1.28,11.8-3.15,17.53C408.58,510,407.49,513.07,406.23,516ZM51.08,488.42c-2.23,7.41-2.38,14,1.61,23.35C59,526.58,59.84,536.68,58,542.28c-1.74,5.41-6.3,8.55-11.64,6.89A13.72,13.72,0,0,1,40,544.71c-4.36-5.25-4.57-6.79-4.37,1.09,0,1.83.12,3.71.26,5.66.46,6.56,1.47,14.12,2.83,23.94,4.15,29.92-24.26,32.47-28.86,8.51C6.84,568,5.71,549.74,6.19,531.62a277.89,277.89,0,0,1,6.55-54c8.6-36.85,12.22-69,25.54-105.52l0-.16.12-.25C43.22,361.42,48.13,351,54,341.4c10.12-16.51,7.41-36.8,13.52-53.86a86.46,86.46,0,0,1,8.07-20.9c4-7.62,5.91-14.88,7.67-23.3C88,221,96.6,198.56,118.09,189.42l.11,0c15.79-6.27,58.49-24.59,62.62-43.39,1.91-8.7,1.35-19,.31-26.36-.62-1.75-.34-3.65-5.44-6.74-5.57-4.22-7.07-11.62-8.65-19.44-1.29-6.4-1.83-10.18,2.09-15.78.61-.87,1.21-1.73.73-4.56l0-.16C164.57,34.7,184.19.43,222.16.43S279.75,34.7,274.47,73v.16c-.48,2.83.12,3.69.73,4.56,2,2.9,4.11,5.87,2.32,14.62h0c-1.46,7.21-2.82,16-8.88,20.6-5.95,2.46-5,3-5.44,6.74-1,6.94-1.2,17.25.85,26.05,4.11,17.61,26.21,23.45,41.13,31,19.76,10,39.87,14.91,51.4,36.52,5.31,10,8.43,21.44,10.64,32.68,2.3,11.74,5.17,16.86,8.25,22.38,8.61,15.41,12.53,30.19,14.05,48.08.75,8.87,1.44,16.92,6.45,25.1,5.91,9.64,10.82,20,15.59,30.32l.12.25.05.16c10.81,29.65,14.07,47.3,18,68.49,5.83,31.56,13.21,58.17,14.1,91,.48,18.12-.65,36.36-3.71,52.29-4.6,24-33,21.41-28.86-8.51,1.31-9.46,2.64-18.81,3.06-28.37.66-14.91.2-7.39-4.5-2.1a15,15,0,0,1-6.2,4.24c-5.34,1.66-9.9-1.48-11.64-6.89-4-12.63,5-25.76,7.59-37.72,2.19-10.08-.67-17.17-5.27-28.22-1.41-3.36-5.76-13.26-8.69-19.25-9.87-20.15-21.28-39.56-29.55-60.56a136.94,136.94,0,0,1-6.17-19.38c-1.9-8.4-5.94-17.65-10-27-2.72-6.24-5.22-12.44-7.71-18.67-4.26-10.68-3.35-11.71-6.54.35a216.53,216.53,0,0,0-4.73,22.81c-1.87,12.39-2.7,26.34-.92,40.06h0c2,14.58,1,23-.35,33.95-.41,3.46-.86,7.19-1.26,11.57-.63,7,2.16,11.55,3.72,18a82.14,82.14,0,0,1,2,14.73c1.09,15.54,4,30.85,6.86,46.12,1.62,8.68,3.23,17.31,4.52,25.88a569.4,569.4,0,0,1,5.27,59.88,298.14,298.14,0,0,1-1.18,45.3c-6.31,57-2.44,76.44,2.24,100,9,45.25,9.43,76.77,4,122.38-2.78,23.29-5.44,45.63-1.66,69,1.3,8.06,5.38,15,10.6,21.06,5.45,6.32,12.27,11.76,18.59,16.46,4.8,3.56,7.35,7.12,8.29,10.45,2.88,11.2-6.16,16.86-18,15.71-3,.16-8.45.89-11.26,1.34-9.09,1.47-16.56,2.68-26.27-5.18-2.21-1.79-5.5-2.2-8.58-2.59-9.39-1.18-17.59-2.21-16.38-21.58a245.85,245.85,0,0,0,.15-27c-1-20.88-4.24-51.4-9.32-70.72-7.4-28.14-11-46.51-12.46-62s-.85-27.94.21-44.16c-.14-16.89-8.37-25.73-13.82-39.77-4.73-12.2-6.06-22.44-7.54-33.81-.61-4.67-1.24-9.53-2.14-14.71-3-17.21-9.26-33.7-15.69-50.64-4.57-12-9.23-24.29-12.94-37.32-3.31-11.61-1.79-11.66-5.1,0-3.71,13.06-8.37,25.33-12.94,37.37-6.43,16.93-12.7,33.42-15.69,50.62-2.92,16.81-3.36,32.21-9.68,48.52-3,7.68-7,13.92-10.07,21.32a46.6,46.6,0,0,0-3.75,18.45c1.06,16.22,1.7,28.59.21,44.16-3.48,36.34-17.87,69.18-19.33,105.17v.24l0,.23c-2.23,18-3.41,35.87-2.27,54,1.2,19.37-7,20.4-16.38,21.58-3.08.39-6.37.8-8.58,2.59-9.71,7.86-17.18,6.65-26.27,5.18s-33.6-1.69-29.25-17c.94-3.33,3.49-6.89,8.29-10.45,12.19-9.07,25.69-19.26,29.19-37.52,3.78-23.39,1.12-45.73-1.66-69-5.43-45.61-5-77.13,4-122.38,4.68-23.54,8.55-43,2.24-100-3.31-29.79-.61-59.78,2.14-89.49,1.26-13.67,3.86-27.56,6.47-41.57,2.51-13.42,5-26.95,6.36-40,1-10.24,1.11-17.41,4.44-27.3,1.19-3.56,2.22-6.63,1.78-11.54-.4-4.38-.85-8.11-1.26-11.57-1.33-11-2.34-19.37-.35-33.95h0c1.75-13.5,1-27.33-.83-39.71a211.31,211.31,0,0,0-4.6-22.76c-3.36-13-2.45-11.5-7,.06-2.4,6-4.84,11.92-7.43,17.85-4.09,9.37-8.13,18.62-10,27-4.06,18-12.89,35.64-21.37,52.17-6.19,12-12.64,24.24-18.43,36.66-3.53,7.57-6.73,14.1-9.25,22.44ZM266.73,688.53a3.37,3.37,0,0,1,0,.55c.48,3.22.87,6.28,1.26,9.26,1.39,10.68,2.64,20.29,6.9,31.25,3.08,8,7.41,14.61,11.14,22.17a125.42,125.42,0,0,1,7.49,18.51,5.4,5.4,0,0,1-1.28,5.33c-3.25,3.28-2.84-1.87-3.33,6.61a215.5,215.5,0,0,0,.27,34.24c1.42,14.84,4.92,32.68,12.16,60.22,6,23,8.52,49.22,9.66,73a254.12,254.12,0,0,1-.15,28.13c-.59,9.59,3.3,10.07,7.77,10.63s9,1.13,13.36,4.66c6.39,5.18,12,4.27,18.88,3.16,5.73-.93,8.26-1.31,13.47-.86,7.06.61,10.89-2.3,3.33-7.92-6.72-5-14-10.84-20.17-18-6.38-7.4-11.39-16-13.05-26.29-4-24.81-1.25-47.94,1.62-72.06,5.29-44.44,4.89-74.87-3.88-119-4.86-24.46-8.88-44.67-2.39-103.26a288.65,288.65,0,0,0,1.14-43.68c-.76-18.4-2.08-40.09-5.1-58.29-.69-4.16.27-3.84-5.76-3.84-23.11,0-52,2.78-71.28,16.11-4.73,3.27-8.27,7.93-13.15,11.13s-4,.65-2.56,8c3.74,18.62,10.19,35.61,16.47,52.16,1,2.58,2,5.15,2.92,7.72,5.8,15.46,6.66,19.1,3.16-.51-.48-2.71-1-5.45-1.68-8.25s-1.35-5.57-2.18-8.45c-1.12-3.91,4.49-5.71,5.6-1.8,5.26,18.33,6.42,33.62,7.64,49.82.48,6.3,1,12.75,1.71,19.48ZM307,803c-1.21-3.87,4.35-5.81,5.55-1.94,4.39,13.93,4,35.43.21,49.48-1.06,3.93-6.71,2.23-5.65-1.7C310.57,835.9,311,815.74,307,803ZM138.08,801c1.21-3.87,6.77-1.93,5.56,1.94-4,12.79-3.6,32.95-.11,45.84,1.05,3.93-4.6,5.63-5.65,1.7C134.08,836.44,133.69,814.94,138.08,801Zm180.61-39.33c1.33-3.84,6.84-1.7,5.51,2.14v0c-2.79,8-12.83,10.25-19.77,7.57l-.06,0c-3.63-1.39-1.63-7.23,2-5.84l.05,0c3.82,1.48,10.67.73,12.27-3.87Zm-174.53,9.87c-6.9,2.16-16.37.24-19.28-7.33-1.66-4.3,3.79-6.23,5.2-2.93,2.07,4.79,7.49,6,12.11,4.42C146.6,764.15,147.6,770.48,144.16,771.55ZM273.79,369.13c.74-3.43,6.09-2.85,5.78.72-.94,10.65-21.13,15.48-28.72,13.84-3.77-.81-2.6-6.89,1.17-6.08C257.27,378.74,272.39,375.57,273.79,369.13Zm5.76-28.95c-1,10.14-20.93,15.16-28.7,13.49-3.77-.82-2.6-6.9,1.17-6.08,4.54,1,20.32-2.42,21.64-7.73S279.85,336.94,279.55,340.18Zm-105.87,30a2.93,2.93,0,0,1,5.77-1c1.19,6.14,16.81,9.47,21.75,8.4,3.78-.81,5,5.27,1.18,6.08C194.6,385.37,174.65,380.35,173.68,370.2Zm50-37.22a2.93,2.93,0,1,1,5.86,0l.06,57.76a2.93,2.93,0,1,1-5.86,0Zm-50,7.2a2.93,2.93,0,0,1,5.76-1c1.47,6.38,16.48,9.59,21.76,8.45,3.78-.82,5,5.26,1.18,6.08C194.5,355.36,174.64,350.27,173.68,340.18ZM226.8,414c2.69,0,4.87,1.57,4.87,3.51S229.49,421,226.8,421s-4.88-1.58-4.88-3.52S224.1,414,226.8,414Zm28.37-238.13c2.49-3.11,7,.9,4.48,4-6.35,8-22.5,8.72-23.39,15.13a2.94,2.94,0,1,1-5.81-.9C232.21,181.5,248.57,184.14,255.17,175.86Zm-65.67,4c-2.49-3.12,2-7.13,4.48-4,6.61,8.28,23,5.64,24.73,18.25.56,4-5.26,4.95-5.81.9C212,188.6,195.85,187.83,189.5,179.88Zm27.17,384.44c6.94,5,9.48,5.17,16.43.35,6.49-4.49,11-10.08,13.25-18A45.71,45.71,0,0,0,248,530.89a2.94,2.94,0,1,1,5.84-.59,52.81,52.81,0,0,1-1.13,15.22c-1.3,5.87-2.89,5.51,3.06,2.7,19.25-9.07,42.75-11.28,63.86-11.31,5.39,0,4.47,0,3.91-3.81-.59-4-1.47-8-2.22-12.09-2.93-15.68-5.89-31.4-7-47.37a71.78,71.78,0,0,0-1.74-12.9c-.4-1.66-.92-3.27-1.44-4.86-2-6.1-.62-5.22-6.55-3.46-45.65,13.57-113.91,15.21-159.63,1.87-6.14-1.79-5.14-2.32-7,4.86s-2,13.13-2.75,21c-1.4,13.64-4,27.32-6.48,40.87-.65,3.48-1.22,7-1.92,10.42-.93,4.49-.91,5.47,4.17,5.48a214.8,214.8,0,0,1,32.23,2.27c10.6,1.65,21.7,4.45,31.62,9.18,5.66,2.69,4.14,3,2.88-2.63a52.47,52.47,0,0,1-1.18-15.43,2.93,2.93,0,1,1,5.83.59,44.07,44.07,0,0,0,1.31,14.49C205.87,554,209.7,559.25,216.67,564.32Zm70.09-285.26a4,4,0,1,1-3.78,4A3.9,3.9,0,0,1,286.76,279.06Zm-120.67,0a4,4,0,1,1-3.78,4A3.9,3.9,0,0,1,166.09,279.06Zm56-40.75a2.94,2.94,0,1,1,5.88,0v32.07a2.94,2.94,0,1,1-5.88,0ZM305,281.69c1.5-3.75,6.89-1.35,5.4,2.41-11,27.72-58.09,22.65-75.54,6.4-2.89-2.7,1-7.37,3.89-4.67C253.15,299.25,295.69,305.08,305,281.69Zm-165.38,2.45c-1.54-3.74,3.83-6.22,5.37-2.48,9.73,23.52,54,17.62,69.06,4.14,2.94-2.64,6.73,2.1,3.79,4.74C199.79,306.73,151.13,312,139.62,284.14Z"/></clipPath></defs><title>clothes-2</title><path class="cls-2" d="M336.58,691.53h-92a5.09,5.09,0,0,1-4.91-4l-13.7-58.5a.75.75,0,0,0-1.48,0l-13.7,58.5a5.14,5.14,0,0,1-4.94,4H113.74a5,5,0,0,1-3.63-1.57,5.34,5.34,0,0,1-1.42-3.81l17.69-237.47a5.11,5.11,0,0,1,5.06-4.94H318.91a5.12,5.12,0,0,1,5.06,4.94l17.69,237.47a5.32,5.32,0,0,1-1.41,3.81A5.16,5.16,0,0,1,336.58,691.53Zm-88-10.33H331.3L314,454.06H136.28L119,681.2h82.77l12.82-54.54a10.76,10.76,0,0,1,21.12,0Z"/><path class="cls-2" d="M313.13,474.71h-176a5.16,5.16,0,0,1,0-10.32h176a5.16,5.16,0,0,1,0,10.32Z"/><path class="cls-2" d="M225.12,552.14a5.11,5.11,0,0,1-5.05-5.16V474.71a5.05,5.05,0,1,1,10.1,0V547A5.11,5.11,0,0,1,225.12,552.14Z"/><path class="cls-2" d="M142,536.66H127V526.33h15c20.9,0,35.51-16.67,35.51-40.58v-11h10.11v11C187.64,515.26,168.47,536.66,142,536.66Z"/><path class="cls-2" d="M323.24,536.66h-15c-26.43,0-45.62-21.4-45.62-50.91v-11h10.11v11c0,23.9,14.59,40.58,35.51,40.58h15Z"/><g class="cls-3"><rect class="cls-2" x="54.72" y="691.87" width="378.76" height="362.36"/><polygon class="cls-2" points="469.11 620.43 371.11 620.43 355.88 443.8 92.11 443.8 79.11 611.43 -21.89 611.43 -21.89 -13.57 469.11 -13.57 469.11 620.43"/></g></svg>