<svg id="Laag_1" data-name="Laag 1" xmlns="http://www.w3.org/2000/svg" viewBox="0 0 450 1008"><defs><style>.cls-1{fill:#fff;}</style></defs><title>clothes-1</title><path class="cls-1" d="M214.36,569.91c-4.69-3.27-8.4-7.6-12.89-10.7-11.17-7.72-25.54-11.77-39.14-13.88-12.22-1.9-23.78-1.73-31.88-2.23-6.22-.38-5.71-.16-6.31,4.08-.69,4.9-1.35,9.7-1.78,14.39-2.68,29-5.37,58.26-2.14,87.33,6.49,58.58,2.47,78.79-2.39,103.24-8.77,44.09-9.18,74.52-3.89,119,2.88,24.11,5.63,47.24,1.62,72-3.18,19.68-18.6,33.37-33.21,44.24-11.46,8.28,11.46,7.91,16.8,8.78,6.85,1.11,12.48,2,18.87-3.16,4.36-3.53,9-4.11,13.36-4.66s8.37-1.05,7.77-10.63c-1.17-18.74,0-37.2,2.32-55.79,1.52-36.62,15.85-69,19.35-105.52,1.17-12.19.92-22.51.23-34.67-.31-5.47-.3-2.72-3.5-6.35a5.4,5.4,0,0,1-1.09-5.09,125,125,0,0,1,7.5-18.56c3.86-7.83,7.95-13.92,11.15-22.18,5.9-15.19,6.36-30.6,9.11-46.44,3.83-22,2.07-40,8.91-63.91,1.12-3.9,6.72-2.1,5.6,1.8a166.66,166.66,0,0,0-4,17.73c-2.62,15.24-2.16,12.84,2.47.45,1.08-2.88,2.18-5.77,3.28-8.67,6.29-16.57,12.75-33.58,16.48-52.15C218.32,571.38,219.26,573.33,214.36,569.91ZM406.2,516a76.07,76.07,0,0,0-4.86,16.05c-2.3,11.71,5.23,4.23,7.39-.36,6.42-15.81,13-13.35,14.62.38a94,94,0,0,1,.7,15.34c-.32,9.79-1.82,19.76-3.16,29.45-2.21,15.91,7.42,16.37,9.61,4.94,2.91-15.13,4-32.56,3.51-49.93-.86-32.1-8.23-58.38-13.94-89.28-3.83-20.74-7-38-17.43-66.59-4.56-9.84-9.25-19.77-14.89-29-6.33-10.31-7.12-19.59-8-29.83-1.25-14.66-4.62-28.89-11.64-41.69-3.07-5.61-1-3.15-5-4.45a5.16,5.16,0,0,1-3.42-5.12c.27-7.47-1.88-17.81-3.77-25.66a93.61,93.61,0,0,0-7.9-22c-9.82-18.42-30.14-23.7-47.06-32.22-17.82-9-41.18-15.24-46.44-37.85-2.39-10.26-2.17-22.1-1.05-30,1.48-10.5,3-11,7.11-12.46,5.64-2,6.26-10.27,7.33-15.54v0c.85-4.19.12-5.24-.61-6.27-1.88-2.69-3.73-5.34-2.53-12.5h0c4.31-31.7-10.75-60.52-42.65-60.52s-47,28.82-42.65,60.52h0a18.86,18.86,0,0,1,.11,7c-1.29,6.29-4.79,4.07-3,12.92,1.17,5.8,2.28,11.29,4.74,13.15,5.09,4,6.76,1.88,9.35,12.93a27.08,27.08,0,0,0,9.08,14.83,25.9,25.9,0,0,0,17.49,6.13c6.41-.21,6.72,10.12.3,10.34a35.19,35.19,0,0,1-22.28-7.1c-4.17-3.11-3.3-4.58-4,1.24a55.86,55.86,0,0,1-1.81,8.91c-6.16,20.78-49.83,40.1-67.73,47.28h0c-18.36,7.81-25.22,28.52-29.07,47.46C91.35,253,90,259.2,90.21,266A5.18,5.18,0,0,1,86.92,271c-3.24,1.18-2.24-.27-4.42,4.05-2,3.91-3.46,7.32-5.61,15.62l-.11.42,0,.07c-6.51,18.08-2.77,36.73-14.5,55.86-5.64,9.21-10.33,19.14-14.89,29-13,35.81-16.64,67.88-25.09,104.1A264.76,264.76,0,0,0,16,531.9c-.47,17.37.6,34.8,3.51,49.93,2.19,11.43,11.82,11,9.61-4.94-1.39-10-2.42-17.74-2.91-24.71a98,98,0,0,1,.45-20.08c1.83-14.42,11.62-12.46,16.33.56h0c4,9.76,7.33,6.7,5.75-1.69A74.79,74.79,0,0,0,43.8,516a105.41,105.41,0,0,1-5.64-16.38c-.77-3.54-2.09-11.13,1-13.8,2.65-2.33,2.13.7,3.74-4a212.79,212.79,0,0,1,8.41-20.07c5.77-12.65,12.53-25,18.82-37.32,7.63-14.94,14.88-30,18.9-43.43a30.42,30.42,0,0,0-.36-16.79,5.13,5.13,0,0,1,4.85-6.87c3.25.17,1.84,2.44,3.84-2.34,1.27-3.08,2.62-6.16,4-9.26,2.42-5.56,4.73-11.07,7-16.72,4.78-12.06,9.59-24.15,12.47-36.93a99.87,99.87,0,0,0,2.79-23.63,4.89,4.89,0,1,1,9.76-.2,111,111,0,0,1-3.06,26.22q-.6,2.67-1.33,5.47c-2.77,10.51-2.49,6.05,1,16.35a211.33,211.33,0,0,1,9,37c1.92,13.18,2.73,28,.83,42.7v0c-1.81,13.29-.88,21.06.34,31.2.44,3.6.91,7.48,1.3,11.89.73,8.1-2.35,6.93,5.61,9.23,44.79,12.9,112,11.21,156.65-2.24,6.31-1.9,4.36-.63,4.94-7,.39-4.41.86-8.29,1.3-11.89,1.22-10.14,2.15-17.91.34-31.2v0c-1.92-14.83-1.05-29.83,1-43.09a194.29,194.29,0,0,1,8.52-34.28c4.31-12.28,4.4-6.78,1.11-19.58-2.55-9.89-4.37-20.57-4.17-30.83a4.89,4.89,0,1,1,9.76.2,99.87,99.87,0,0,0,2.79,23.63q1.15,5.1,2.87,10.82c4.15,13.64,11,30,16.62,42.83q1.41,3.23,2.79,6.44c4.31,10.11,1.66,3.48,7,5.44a5.25,5.25,0,0,1,3,6.59,28.05,28.05,0,0,0-1.36,8.48c-.07,7.19,2.58,13.93,5.16,20.43,8.19,20.58,19.44,39.7,29.13,59.49,2.41,4.91,8.45,18.73,8.77,19.48,1.38,3.29,2.64,6.3,3.71,9.15,2.09,5.59,1.3,1.91,4.19,4.66a5.27,5.27,0,0,1,1.61,3.46c.38,5.24-1.28,11.8-3.14,17.53C408.55,510,407.47,513.07,406.2,516ZM51.11,488.42c-2.24,7.42-2.39,14,1.61,23.35,6.35,14.81,7.14,24.91,5.34,30.51-1.73,5.4-6.29,8.54-11.64,6.89a13.85,13.85,0,0,1-6.35-4.46c-4.36-5.25-4.57-6.79-4.38,1.09.05,1.83.13,3.7.27,5.65.46,6.56,1.47,14.12,2.83,23.94,4.15,29.92-24.26,32.46-28.86,8.51C6.87,568,5.74,549.73,6.23,531.62a276.85,276.85,0,0,1,6.54-54c8.6-36.86,12.22-69,25.53-105.51l.06-.16.12-.25c4.77-10.3,9.67-20.68,15.58-30.32,10.12-16.51,7.41-36.79,13.52-53.85a87.06,87.06,0,0,1,8.07-20.9c4-7.62,5.91-14.87,7.67-23.29,4.65-22.3,13.3-44.78,34.78-53.91l.12,0c15.79-6.27,58.47-24.59,62.6-43.39,1.91-8.69,1.36-19,.32-26.36-.62-1.74-.34-3.65-5.44-6.74-5.57-4.21-7.07-11.61-8.65-19.43-1.29-6.39-1.83-10.18,2.09-15.78.61-.87,1.2-1.73.73-4.56l0-.16C164.58,34.77,184.19.5,222.16.5S279.74,34.77,274.47,73l0,.16c-.48,2.83.12,3.69.73,4.56,2,2.91,4.11,5.87,2.33,14.62h0c-1.46,7.21-2.82,16-8.88,20.59-5.94,2.47-4.95,3-5.44,6.74-1,6.94-1.19,17.25.86,26,4.1,17.61,26.2,23.45,41.12,31,19.75,9.95,39.86,14.91,51.39,36.52,5.31,9.95,8.43,21.43,10.64,32.67,2.3,11.74,5.16,16.86,8.25,22.37,8.6,15.41,12.53,30.19,14.05,48.07.75,8.88,1.43,16.92,6.45,25.1,5.91,9.64,10.81,20,15.58,30.32l.12.25.06.16c10.8,29.65,14.06,47.29,18,68.48,5.83,31.55,13.21,58.16,14.09,91,.49,18.11-.64,36.35-3.7,52.28-4.6,24-33,21.41-28.86-8.51,1.31-9.46,2.64-18.81,3.06-28.37.66-14.91.21-7.39-4.49-2.1a15,15,0,0,1-6.2,4.25c-5.35,1.65-9.91-1.49-11.64-6.89-4.06-12.64,5-25.76,7.58-37.72,2.19-10.07-.67-17.17-5.26-28.21-1.41-3.37-5.77-13.26-8.7-19.25C375.7,437,364.29,417.54,356,396.54a134.29,134.29,0,0,1-6.17-19.37c-1.9-8.4-5.94-17.65-10-27-2.73-6.24-5.23-12.43-7.72-18.67-4.26-10.68-3.35-11.71-6.54.36a218.53,218.53,0,0,0-4.72,22.8C319,367,318.15,381,319.92,394.7h0c2,14.59,1,23-.35,33.95-.42,3.46-.87,7.19-1.26,11.57-.63,7,2.16,11.55,3.71,18a80.37,80.37,0,0,1,2,14.73c1.1,15.54,4,30.84,6.86,46.1,1.62,8.68,3.23,17.32,4.53,25.88a574.81,574.81,0,0,1,5.27,59.88,299.34,299.34,0,0,1-1.18,45.29c-6.32,57-2.45,76.43,2.23,100,9,45.24,9.43,76.75,4,122.35-2.77,23.29-5.43,45.63-1.66,69,1.3,8.05,5.38,15,10.6,21.05,5.45,6.32,12.27,11.76,18.59,16.46,4.79,3.56,7.35,7.12,8.29,10.44,2.87,11.21-6.16,16.86-18,15.72-3.05.16-8.45.89-11.26,1.34-9.09,1.47-16.56,2.68-26.26-5.18-2.22-1.79-5.51-2.21-8.58-2.59-9.39-1.18-17.59-2.21-16.38-21.58a245.85,245.85,0,0,0,.15-27c-1-20.87-4.24-51.39-9.32-70.71-7.4-28.13-11-46.5-12.46-62s-.85-27.94.21-44.15c-.14-16.9-8.36-25.73-13.81-39.78-4.74-12.19-6.07-22.43-7.55-33.8-.6-4.66-1.24-9.53-2.14-14.71-3-17.2-9.25-33.69-15.68-50.62-4.57-12-9.23-24.3-12.94-37.32-3.31-11.61-1.79-11.66-5.1,0-3.71,13.06-8.37,25.32-12.94,37.36-6.43,16.93-12.69,33.41-15.68,50.61-2.92,16.81-3.36,32.21-9.69,48.51-3,7.68-7,13.93-10.06,21.33a46.53,46.53,0,0,0-3.75,18.45c1.06,16.21,1.7,28.58.21,44.15-3.48,36.33-17.87,69.16-19.32,105.15v.23l0,.24c-2.23,18-3.4,35.87-2.27,54,1.21,19.37-7,20.4-16.38,21.58-3.07.38-6.36.8-8.58,2.59-9.7,7.86-17.17,6.65-26.26,5.18s-33.59-1.69-29.25-17.06c.94-3.32,3.5-6.88,8.29-10.44,12.19-9.07,25.69-19.26,29.19-37.51,3.77-23.39,1.11-45.73-1.66-69-5.43-45.6-5-77.11,4-122.35,4.68-23.54,8.55-43,2.23-100-3.3-29.79-.6-59.77,2.15-89.48,1.26-13.67,3.85-27.55,6.47-41.57,2.5-13.41,5-26.94,6.36-40,1-10.24,1.11-17.4,4.43-27.3,1.19-3.56,2.22-6.62,1.78-11.53-.39-4.38-.84-8.11-1.26-11.57-1.32-11-2.33-19.36-.35-33.95h0c1.75-13.49,1-27.32-.83-39.7a216.8,216.8,0,0,0-4.6-22.76c-3.36-13-2.45-11.49-7.05.07-2.39,6-4.83,11.91-7.43,17.85-4.09,9.36-8.13,18.61-10,27-4,17.94-12.88,35.64-21.36,52.16-6.19,12-12.63,24.23-18.42,36.65-3.53,7.57-6.74,14.11-9.25,22.44ZM266.72,688.5a3.49,3.49,0,0,1,0,.56c.48,3.21.88,6.27,1.27,9.25,1.39,10.68,2.64,20.29,6.89,31.25,3.08,8,7.42,14.61,11.14,22.16a125.87,125.87,0,0,1,7.49,18.51,5.4,5.4,0,0,1-1.28,5.33c-3.25,3.28-2.84-1.87-3.33,6.61a215.5,215.5,0,0,0,.27,34.24c1.42,14.83,4.92,32.67,12.15,60.21,6,22.94,8.53,49.21,9.67,73a254.12,254.12,0,0,1-.15,28.13c-.6,9.58,3.3,10.07,7.77,10.63s9,1.13,13.36,4.66c6.39,5.18,12,4.27,18.87,3.16,5.73-.93,8.26-1.31,13.47-.86,7.06.6,10.88-2.3,3.33-7.92-6.72-5-14-10.84-20.17-18-6.38-7.39-11.39-16-13-26.28-4-24.81-1.26-47.94,1.62-72,5.29-44.44,4.88-74.87-3.89-119-4.86-24.45-8.88-44.66-2.39-103.24a287.36,287.36,0,0,0,1.15-43.68c-.76-18.39-2.09-40.08-5.11-58.28-.69-4.15.28-3.84-5.76-3.84-23.1,0-52,2.78-71.26,16.11-4.73,3.27-8.28,7.93-13.16,11.13s-4,.65-2.55,8c3.73,18.62,10.18,35.6,16.47,52.16q1.47,3.86,2.92,7.71c5.79,15.46,6.65,19.1,3.16-.51-.48-2.71-1-5.45-1.68-8.25s-1.36-5.57-2.18-8.45c-1.12-3.9,4.48-5.7,5.6-1.8,5.26,18.33,6.41,33.62,7.64,49.82.48,6.3,1,12.74,1.7,19.47ZM307,802.91c-1.2-3.87,4.35-5.82,5.56-1.95,4.39,13.93,4,35.43.21,49.48-1.06,3.93-6.71,2.23-5.65-1.7C310.56,835.85,311,815.69,307,802.91ZM138.09,801c1.21-3.87,6.77-1.92,5.56,1.95-4,12.78-3.59,32.94-.11,45.83,1.05,3.93-4.6,5.63-5.65,1.7C134.09,836.39,133.7,814.89,138.09,801Zm180.59-39.32c1.33-3.84,6.84-1.7,5.51,2.14v0c-2.79,8-12.83,10.24-19.78,7.56l0,0c-3.63-1.39-1.63-7.23,2-5.84l.06,0c3.82,1.48,10.66.73,12.27-3.86Zm-174.51,9.87c-6.89,2.16-16.36.24-19.27-7.32-1.66-4.31,3.78-6.24,5.2-2.94,2.06,4.8,7.49,6,12.1,4.42C146.61,764.11,147.62,770.44,144.17,771.51ZM273.78,369.15c.74-3.43,6.09-2.85,5.78.72-.93,10.65-21.13,15.48-28.71,13.84-3.78-.81-2.61-6.89,1.17-6.08C257.27,378.76,272.39,375.59,273.78,369.15Zm5.76-28.95c-1,10.15-20.92,15.16-28.69,13.49-3.78-.82-2.61-6.89,1.17-6.08,4.53,1,20.31-2.42,21.64-7.73S279.84,337,279.54,340.2Zm-105.86,30a2.93,2.93,0,0,1,5.78-1c1.19,6.14,16.8,9.47,21.75,8.4,3.77-.81,4.94,5.27,1.17,6.08C194.61,385.39,174.65,380.37,173.68,370.22Zm50-37.22a2.93,2.93,0,1,1,5.86,0l.06,57.75a2.93,2.93,0,1,1-5.86,0Zm-50,7.2a2.93,2.93,0,0,1,5.77-1c1.46,6.38,16.47,9.59,21.76,8.45,3.77-.81,4.94,5.26,1.17,6.08C194.51,355.39,174.65,350.29,173.68,340.2ZM226.8,414c2.69,0,4.87,1.57,4.87,3.51S229.49,421,226.8,421s-4.88-1.58-4.88-3.52S224.1,414,226.8,414Zm28.37-238.09c2.49-3.11,7,.9,4.48,4-6.35,8-22.5,8.73-23.39,15.14-.56,4-6.37,3.14-5.81-.9C232.21,181.55,248.56,184.19,255.17,175.91Zm-65.66,4c-2.49-3.11,2-7.12,4.47-4,6.61,8.28,23,5.64,24.73,18.25.56,4-5.25,4.94-5.81.9C212,188.65,195.85,187.88,189.51,179.92Zm27.16,384.39c6.94,5,9.48,5.17,16.43.35,6.48-4.49,11-10.07,13.24-18A46,46,0,0,0,248,530.88a2.93,2.93,0,1,1,5.83-.58,52,52,0,0,1-1.13,15.21c-1.3,5.87-2.89,5.51,3.06,2.71,19.25-9.07,42.75-11.29,63.85-11.32,5.39,0,4.48,0,3.92-3.81-.59-4-1.47-8-2.23-12.08-2.92-15.68-5.88-31.4-7-47.36a71.94,71.94,0,0,0-1.73-12.91c-.4-1.66-.92-3.26-1.45-4.86-2-6.1-.62-5.21-6.54-3.45C258.9,466,190.66,467.63,144.94,454.3c-6.13-1.79-5.13-2.32-7,4.86s-1.95,13.13-2.75,21c-1.39,13.63-3.94,27.3-6.47,40.86-.65,3.48-1.22,7-1.93,10.41-.92,4.5-.91,5.47,4.18,5.48a214.73,214.73,0,0,1,32.21,2.28c10.6,1.64,21.7,4.45,31.63,9.17,5.65,2.69,4.14,3,2.87-2.62a52.4,52.4,0,0,1-1.17-15.43,2.93,2.93,0,1,1,5.83.58,43.77,43.77,0,0,0,1.3,14.49C205.87,554,209.7,559.24,216.67,564.31Zm70.08-285.22a4,4,0,1,1-3.78,4A3.9,3.9,0,0,1,286.75,279.09Zm-120.65,0a4,4,0,1,1-3.78,4A3.9,3.9,0,0,1,166.1,279.09Zm56-40.74a2.94,2.94,0,1,1,5.88,0v32.06a2.94,2.94,0,1,1-5.88,0ZM305,281.73c1.49-3.76,6.89-1.35,5.4,2.4-11,27.72-58.09,22.65-75.53,6.4-2.89-2.69,1-7.36,3.88-4.66C253.15,299.28,295.68,305.1,305,281.73Zm-165.36,2.44c-1.54-3.74,3.83-6.22,5.37-2.48,9.74,23.52,54,17.62,69.05,4.14,2.94-2.64,6.73,2.11,3.79,4.74C199.79,306.75,151.14,312,139.63,284.17Z"/></svg>