<svg id="Laag_1" data-name="Laag 1" xmlns="http://www.w3.org/2000/svg" xmlns:xlink="http://www.w3.org/1999/xlink" viewBox="0 0 450 1008"><defs><style>.cls-1,.cls-2{fill:none;}.cls-2{stroke:#fff;stroke-linecap:round;stroke-linejoin:round;stroke-width:8px;}.cls-3{clip-path:url(#clip-path);}.cls-4{fill:#fff;}</style><clipPath id="clip-path"><path class="cls-1" d="M216.35,569.92c-4.69-3.27-8.41-7.6-12.89-10.7-11.17-7.72-25.55-11.77-39.15-13.88-12.23-1.9-23.79-1.73-31.89-2.23-6.22-.39-5.71-.17-6.31,4.08-.69,4.9-1.35,9.7-1.78,14.38-2.68,29-5.36,58.28-2.14,87.35,6.49,58.59,2.47,78.8-2.39,103.26-8.77,44.1-9.18,74.53-3.88,119,2.87,24.12,5.62,47.25,1.61,72.06-3.18,19.69-18.6,33.38-33.21,44.25-11.46,8.28,11.46,7.92,16.8,8.78,6.85,1.11,12.48,2,18.87-3.16,4.36-3.53,9-4.11,13.37-4.66s8.36-1,7.76-10.63c-1.17-18.75,0-37.21,2.32-55.8,1.53-36.63,15.86-69,19.36-105.54,1.16-12.19.92-22.51.23-34.67-.31-5.47-.3-2.72-3.5-6.35a5.38,5.38,0,0,1-1.09-5.09,125,125,0,0,1,7.5-18.56c3.86-7.84,7.95-13.93,11.15-22.19,5.9-15.19,6.36-30.61,9.11-46.44,3.83-22,2.07-40,8.91-63.92,1.12-3.91,6.73-2.11,5.61,1.8a166.66,166.66,0,0,0-4,17.73c-2.63,15.24-2.16,12.84,2.47.45,1.07-2.88,2.17-5.77,3.27-8.67,6.3-16.58,12.76-33.59,16.49-52.16C220.31,571.39,221.24,573.34,216.35,569.92ZM408.21,516a76.24,76.24,0,0,0-4.86,16.05c-2.29,11.72,5.24,4.23,7.4-.35,6.42-15.82,13-13.36,14.62.37a94,94,0,0,1,.7,15.34c-.32,9.8-1.82,19.77-3.16,29.46-2.21,15.92,7.41,16.37,9.61,4.94,2.91-15.13,4-32.56,3.51-49.93-.86-32.11-8.23-58.39-13.94-89.3-3.83-20.74-7-38-17.43-66.6-4.57-9.84-9.26-19.77-14.9-29-6.33-10.32-7.12-19.6-8-29.84-1.25-14.66-4.62-28.89-11.64-41.7-3.08-5.6-1.05-3.15-5-4.45a5.17,5.17,0,0,1-3.43-5.12c.27-7.46-1.87-17.81-3.76-25.66a94.51,94.51,0,0,0-7.9-22c-9.82-18.42-30.15-23.7-47.07-32.23-17.83-9-41.19-15.24-46.45-37.85-2.39-10.26-2.17-22.11-1.05-30,1.48-10.51,3-11,7.12-12.47,5.64-2,6.25-10.27,7.32-15.54v0c.85-4.19.12-5.24-.6-6.27-1.89-2.69-3.74-5.34-2.53-12.5h0c4.32-31.71-10.74-60.53-42.65-60.53s-47,28.82-42.66,60.53h0a18.86,18.86,0,0,1,.11,7c-1.29,6.28-4.79,4.07-3,12.92,1.17,5.8,2.28,11.3,4.74,13.16,5.1,4,6.76,1.87,9.35,12.92a27.08,27.08,0,0,0,9.08,14.83,25.94,25.94,0,0,0,17.49,6.14c6.42-.21,6.73,10.12.31,10.34a35.25,35.25,0,0,1-22.29-7.1c-4.17-3.12-3.29-4.59-4,1.24a55.86,55.86,0,0,1-1.81,8.91c-6.16,20.78-49.83,40.1-67.74,47.28h0c-18.36,7.81-25.22,28.52-29.07,47.47-1.32,6.49-2.71,12.67-2.46,19.42A5.17,5.17,0,0,1,88.89,271c-3.25,1.19-2.24-.26-4.43,4.05-2,3.92-3.45,7.33-5.61,15.63l-.11.42,0,.07C72.21,309.24,76,327.9,64.22,347c-5.65,9.21-10.34,19.14-14.9,29-13,35.82-16.64,67.89-25.1,104.12a266.3,266.3,0,0,0-6.28,51.78c-.47,17.37.61,34.8,3.52,49.93,2.19,11.43,11.81,11,9.61-4.94-1.39-10-2.42-17.74-2.91-24.71a98.06,98.06,0,0,1,.45-20.09c1.83-14.42,11.62-12.46,16.33.56h0c4,9.77,7.33,6.7,5.75-1.69A74.79,74.79,0,0,0,45.76,516a105.41,105.41,0,0,1-5.64-16.38c-.77-3.54-2.09-11.13,1-13.81,2.65-2.32,2.13.7,3.74-3.94a210.6,210.6,0,0,1,8.41-20.07c5.78-12.66,12.54-25,18.82-37.33,7.63-14.95,14.89-30,18.9-43.44a30.33,30.33,0,0,0-.35-16.79,5.13,5.13,0,0,1,4.85-6.87c3.25.16,1.84,2.44,3.84-2.35,1.27-3.07,2.62-6.15,4-9.25,2.43-5.56,4.74-11.08,7-16.72,4.78-12.07,9.59-24.16,12.47-36.94a99.89,99.89,0,0,0,2.79-23.64,4.89,4.89,0,1,1,9.77-.2,111.61,111.61,0,0,1-3.06,26.23q-.6,2.67-1.34,5.47c-2.76,10.51-2.48,6.05,1,16.35a212.25,212.25,0,0,1,9,37c1.92,13.18,2.73,28,.82,42.7v0c-1.81,13.29-.87,21.06.35,31.19.43,3.61.9,7.49,1.3,11.9.73,8.1-2.35,6.93,5.6,9.23,44.81,12.91,112.06,11.21,156.68-2.24,6.31-1.9,4.36-.63,4.94-7,.39-4.41.86-8.29,1.3-11.9,1.22-10.13,2.15-17.9.34-31.19v0c-1.92-14.83-1.05-29.83,1-43.09a193.45,193.45,0,0,1,8.53-34.29c4.3-12.27,4.39-6.78,1.1-19.58-2.54-9.9-4.37-20.57-4.17-30.84a4.89,4.89,0,1,1,9.76.2,100.42,100.42,0,0,0,2.79,23.64c.77,3.4,1.72,7,2.88,10.82,4.14,13.64,11,30,16.61,42.84.94,2.15,1.88,4.3,2.79,6.44,4.32,10.11,1.66,3.48,7,5.44a5.26,5.26,0,0,1,3,6.59,28.05,28.05,0,0,0-1.36,8.48c-.07,7.19,2.58,13.93,5.16,20.44,8.19,20.57,19.44,39.7,29.13,59.49,2.41,4.92,8.45,18.73,8.77,19.49,1.38,3.29,2.64,6.29,3.71,9.15,2.1,5.58,1.31,1.91,4.2,4.66a5.26,5.26,0,0,1,1.6,3.46c.39,5.24-1.28,11.8-3.14,17.53C410.56,510,409.48,513.07,408.21,516ZM53.07,488.42c-2.24,7.41-2.39,14,1.61,23.35C61,526.58,61.82,536.68,60,542.28c-1.74,5.41-6.3,8.55-11.65,6.89A13.7,13.7,0,0,1,42,544.71c-4.36-5.25-4.57-6.79-4.38,1.09.05,1.83.13,3.71.27,5.66.46,6.56,1.47,14.12,2.83,23.94,4.15,29.92-24.26,32.47-28.86,8.51C8.83,568,7.69,549.74,8.18,531.62a277.12,277.12,0,0,1,6.55-54c8.6-36.85,12.22-69,25.53-105.52l.06-.16.12-.25C45.21,361.42,50.11,351,56,341.4c10.13-16.51,7.42-36.8,13.52-53.86a87.31,87.31,0,0,1,8.07-20.9c4-7.62,5.91-14.88,7.67-23.3,4.66-22.3,13.31-44.78,34.8-53.92l.11,0C136,183.11,178.67,164.79,182.8,146c1.91-8.7,1.36-19,.32-26.36-.62-1.75-.34-3.65-5.44-6.74-5.57-4.22-7.07-11.62-8.65-19.44-1.3-6.4-1.83-10.18,2.09-15.78.61-.87,1.2-1.73.73-4.56l0-.16C166.56,34.7,186.17.43,224.15.43S281.74,34.7,276.46,73l0,.16c-.47,2.83.13,3.69.74,4.56,2,2.9,4.1,5.87,2.32,14.62h0c-1.46,7.21-2.83,16-8.88,20.6-5.95,2.46-5,3-5.45,6.74-1,6.94-1.19,17.25.86,26.05,4.1,17.61,26.21,23.45,41.13,31,19.75,10,39.87,14.91,51.4,36.52,5.3,10,8.43,21.44,10.64,32.68,2.3,11.74,5.16,16.86,8.25,22.38,8.61,15.41,12.53,30.19,14.05,48.08.75,8.87,1.43,16.92,6.45,25.1,5.91,9.64,10.81,20,15.59,30.32l.11.25.06.16c10.81,29.65,14.07,47.3,18,68.49,5.83,31.56,13.21,58.17,14.09,91,.49,18.12-.64,36.36-3.7,52.29-4.6,24-33,21.41-28.87-8.51,1.32-9.46,2.65-18.81,3.07-28.37.66-14.91.2-7.39-4.5-2.1a15,15,0,0,1-6.2,4.24c-5.34,1.66-9.91-1.48-11.64-6.89-4.06-12.63,5-25.76,7.58-37.72,2.2-10.08-.66-17.17-5.26-28.22-1.41-3.36-5.76-13.26-8.69-19.25-9.87-20.15-21.28-39.56-29.55-60.56a135.66,135.66,0,0,1-6.17-19.38c-1.9-8.4-5.94-17.65-10-27-2.72-6.24-5.22-12.44-7.71-18.67-4.27-10.68-3.35-11.71-6.54.35a216.53,216.53,0,0,0-4.73,22.81c-1.88,12.39-2.7,26.34-.93,40.06h0c2,14.58,1,23-.35,33.95-.42,3.46-.87,7.19-1.26,11.57-.63,7,2.16,11.55,3.71,18a81.32,81.32,0,0,1,2,14.73c1.09,15.54,4,30.85,6.85,46.12,1.63,8.68,3.24,17.31,4.53,25.88a569.4,569.4,0,0,1,5.27,59.88,298.14,298.14,0,0,1-1.18,45.3c-6.32,57-2.45,76.44,2.24,100,9,45.25,9.43,76.77,4,122.38-2.77,23.29-5.43,45.63-1.65,69,1.3,8.06,5.38,15,10.59,21.06,5.46,6.32,12.28,11.76,18.6,16.46,4.79,3.56,7.35,7.12,8.29,10.45,2.88,11.2-6.16,16.86-18,15.71-3,.16-8.44.89-11.26,1.34-9.08,1.47-16.56,2.68-26.26-5.18-2.22-1.79-5.5-2.2-8.58-2.59-9.39-1.18-17.59-2.21-16.38-21.58a245.85,245.85,0,0,0,.15-27c-1-20.88-4.25-51.4-9.32-70.72-7.4-28.14-11-46.51-12.47-62s-.84-27.94.22-44.16c-.15-16.89-8.37-25.73-13.82-39.77-4.73-12.2-6.06-22.44-7.54-33.81-.61-4.67-1.25-9.53-2.15-14.71-3-17.21-9.25-33.7-15.68-50.64-4.57-12-9.23-24.29-12.94-37.32-3.31-11.61-1.8-11.66-5.1,0-3.71,13.06-8.37,25.33-12.95,37.37-6.43,16.93-12.69,33.42-15.68,50.62-2.92,16.81-3.36,32.21-9.68,48.52-3,7.68-7,13.92-10.07,21.32a46.6,46.6,0,0,0-3.75,18.45c1.06,16.22,1.7,28.59.21,44.16-3.48,36.34-17.87,69.18-19.33,105.17v.24l0,.23c-2.22,18-3.4,35.87-2.26,54,1.2,19.37-7,20.4-16.38,21.58-3.08.39-6.37.8-8.58,2.59-9.71,7.86-17.18,6.65-26.27,5.18s-33.6-1.69-29.25-17c.94-3.33,3.49-6.89,8.28-10.45,12.2-9.07,25.7-19.26,29.2-37.52,3.77-23.39,1.11-45.73-1.66-69-5.43-45.61-5-77.13,4-122.38,4.68-23.54,8.55-43,2.23-100-3.3-29.79-.6-59.78,2.15-89.49,1.26-13.67,3.86-27.56,6.47-41.57,2.5-13.42,5-26.95,6.36-40,1.05-10.24,1.11-17.41,4.43-27.3,1.2-3.56,2.23-6.63,1.79-11.54-.4-4.38-.85-8.11-1.27-11.57-1.32-11-2.33-19.37-.34-33.95h0c1.75-13.5,1-27.33-.83-39.71a213.76,213.76,0,0,0-4.6-22.76c-3.36-13-2.45-11.5-7,.06-2.4,6-4.84,11.92-7.43,17.85-4.1,9.37-8.14,18.62-10,27-4,18-12.88,35.64-21.37,52.17-6.18,12-12.63,24.24-18.42,36.66-3.53,7.57-6.73,14.1-9.25,22.44ZM268.71,688.53a3.37,3.37,0,0,1,0,.55c.47,3.22.87,6.28,1.26,9.26,1.39,10.68,2.64,20.29,6.89,31.25,3.09,8,7.42,14.61,11.14,22.17a125.42,125.42,0,0,1,7.5,18.51,5.4,5.4,0,0,1-1.28,5.33c-3.25,3.28-2.84-1.87-3.33,6.61a215.5,215.5,0,0,0,.27,34.24c1.42,14.84,4.92,32.68,12.15,60.22,6,23,8.53,49.22,9.67,73a254.12,254.12,0,0,1-.15,28.13c-.6,9.59,3.3,10.07,7.77,10.63s9,1.13,13.36,4.66c6.39,5.18,12,4.27,18.88,3.16,5.72-.93,8.26-1.31,13.47-.86,7.06.61,10.88-2.3,3.32-7.92-6.71-5-14-10.84-20.16-18-6.39-7.4-11.39-16-13.05-26.29-4-24.81-1.25-47.94,1.62-72.06,5.29-44.44,4.88-74.87-3.88-119-4.87-24.46-8.89-44.67-2.39-103.26a288.65,288.65,0,0,0,1.14-43.68c-.76-18.4-2.08-40.09-5.11-58.29-.69-4.16.28-3.84-5.76-3.84-23.11,0-52,2.78-71.27,16.11-4.73,3.27-8.28,7.93-13.16,11.13s-4,.65-2.55,8c3.73,18.62,10.18,35.61,16.47,52.16,1,2.58,2,5.15,2.92,7.72,5.8,15.46,6.66,19.1,3.16-.51-.48-2.71-1-5.45-1.68-8.25s-1.36-5.57-2.18-8.45c-1.12-3.91,4.48-5.71,5.6-1.8,5.26,18.33,6.42,33.62,7.64,49.82.48,6.3,1,12.75,1.7,19.48ZM309,803c-1.2-3.87,4.35-5.81,5.56-1.94,4.39,13.93,4,35.43.21,49.48-1.06,3.93-6.71,2.23-5.65-1.7C312.56,835.9,313,815.74,309,803ZM140.07,801c1.21-3.87,6.76-1.93,5.56,1.94-4,12.79-3.6,32.95-.12,45.84,1.06,3.93-4.59,5.63-5.65,1.7C136.07,836.44,135.68,814.94,140.07,801Zm180.61-39.33c1.33-3.84,6.84-1.7,5.51,2.14v0c-2.79,8-12.83,10.25-19.78,7.57l0,0c-3.63-1.39-1.63-7.23,2-5.84l.06,0c3.82,1.48,10.66.73,12.27-3.87Zm-174.53,9.87c-6.9,2.16-16.37.24-19.28-7.33-1.66-4.3,3.78-6.23,5.2-2.93,2.06,4.79,7.49,6,12.1,4.42C148.59,764.15,149.59,770.48,146.15,771.55ZM275.78,369.13c.74-3.43,6.09-2.85,5.78.72-.94,10.65-21.13,15.48-28.72,13.84-3.78-.81-2.6-6.89,1.17-6.08C259.26,378.74,274.38,375.57,275.78,369.13Zm5.76-28.95c-1,10.14-20.93,15.16-28.7,13.49-3.78-.82-2.6-6.9,1.17-6.08,4.54,1,20.32-2.42,21.64-7.73S281.84,336.94,281.54,340.18Zm-105.88,30a2.93,2.93,0,0,1,5.78-1c1.19,6.14,16.81,9.47,21.75,8.4,3.78-.81,4.95,5.27,1.17,6.08C196.59,385.37,176.63,380.35,175.66,370.2ZM225.71,333a2.93,2.93,0,1,1,5.86,0l.05,57.76a2.93,2.93,0,1,1-5.85,0Zm-50.05,7.2a2.93,2.93,0,0,1,5.77-1c1.46,6.38,16.47,9.59,21.76,8.45,3.78-.82,4.95,5.26,1.17,6.08C196.49,355.36,176.63,350.27,175.66,340.18ZM228.78,414c2.7,0,4.88,1.57,4.88,3.51s-2.18,3.52-4.88,3.52-4.87-1.58-4.87-3.52S226.09,414,228.78,414Zm28.38-238.13c2.49-3.11,7,.9,4.48,4-6.35,8-22.5,8.72-23.39,15.13a2.94,2.94,0,1,1-5.81-.9C234.2,181.5,250.56,184.14,257.16,175.86Zm-65.67,4c-2.49-3.12,2-7.13,4.48-4,6.6,8.28,23,5.64,24.72,18.25a2.94,2.94,0,1,1-5.81.9C214,188.6,197.84,187.83,191.49,179.88Zm27.17,384.44c6.94,5,9.48,5.17,16.43.35,6.48-4.49,11-10.08,13.24-18A46,46,0,0,0,250,530.89a2.93,2.93,0,1,1,5.83-.59,52.38,52.38,0,0,1-1.12,15.22c-1.3,5.87-2.9,5.51,3.06,2.7,19.24-9.07,42.74-11.28,63.86-11.31,5.38,0,4.47,0,3.91-3.81-.59-4-1.47-8-2.22-12.09-2.93-15.68-5.89-31.4-7-47.37a71.78,71.78,0,0,0-1.74-12.9c-.4-1.66-.92-3.27-1.45-4.86-2-6.1-.62-5.22-6.54-3.46C260.9,466,192.64,467.63,146.91,454.29c-6.13-1.79-5.13-2.32-7,4.86s-1.95,13.13-2.76,21c-1.39,13.64-3.94,27.32-6.47,40.87-.65,3.48-1.22,7-1.93,10.42-.92,4.49-.9,5.47,4.18,5.48a214.68,214.68,0,0,1,32.22,2.27c10.61,1.65,21.7,4.45,31.63,9.18,5.66,2.69,4.14,3,2.88-2.63a52.47,52.47,0,0,1-1.18-15.43,2.93,2.93,0,1,1,5.83.59,43.81,43.81,0,0,0,1.31,14.49C207.86,554,211.68,559.25,218.66,564.32Zm70.09-285.26a4,4,0,1,1-3.79,4A3.9,3.9,0,0,1,288.75,279.06Zm-120.67,0a4,4,0,1,1-3.79,4A3.9,3.9,0,0,1,168.08,279.06Zm56-40.75a2.94,2.94,0,1,1,5.88,0v32.07a2.94,2.94,0,1,1-5.88,0ZM307,281.69c1.49-3.75,6.89-1.35,5.4,2.41-11,27.72-58.09,22.65-75.54,6.4-2.89-2.7,1-7.37,3.88-4.67C255.14,299.25,297.68,305.08,307,281.69ZM141.6,284.14c-1.54-3.74,3.84-6.22,5.38-2.48,9.73,23.52,54,17.62,69.05,4.14,2.95-2.64,6.74,2.1,3.79,4.74C201.77,306.73,153.12,312,141.6,284.14Z"/></clipPath></defs><title>clothes-5</title><polyline class="cls-2" points="126.31 256.62 130.31 445.65 328.62 445.65 332.63 256.62"/><polyline class="cls-2" points="126.31 285.87 72.78 501.6 4.1 486.67 84.12 214.99"/><polyline class="cls-2" points="333.75 285.87 384.68 497.67 445.9 484.23 375.94 214.99"/><path class="cls-2" d="M285.8,170h29.3c57.46,0,59.72,43.88,59.72,43.88"/><path class="cls-2" d="M84.12,213.86s9-43.88,59.71-43.88h29.3"/><path class="cls-2" d="M173.13,173.35s0,48.39,56.34,48.39c55.21,0,55.21-46.78,55.21-46.78"/><g class="cls-3"><rect class="cls-4" x="56.7" y="957.43" width="378.76" height="96.81"/><rect class="cls-4" x="-37.33" y="494.1" width="119.74" height="105.88" transform="translate(98.56 4.84) rotate(10.34)"/><rect class="cls-4" x="382.4" y="491.99" width="97.21" height="129.59" transform="translate(-107.18 102.77) rotate(-12.11)"/><rect class="cls-4" x="165.56" y="-141.7" width="125.26" height="341.48" rx="31.57"/></g><path class="cls-4" d="M376.57,957.53h-92a5.09,5.09,0,0,1-4.91-4l-49.71-324.5a.74.74,0,0,0-1.47,0l-45.71,324.5a5.12,5.12,0,0,1-4.93,4H85.73A5,5,0,0,1,82.1,956a5.34,5.34,0,0,1-1.42-3.81l49.69-503.47a5.11,5.11,0,0,1,5-4.94H322.9a5.11,5.11,0,0,1,5.05,4.94l53.7,503.47a5.32,5.32,0,0,1-1.41,3.81A5.16,5.16,0,0,1,376.57,957.53ZM288.52,947.2h82.77L318,454.06H140.26L91,947.2h82.77l44.82-320.54a10.76,10.76,0,0,1,21.12,0Z"/><path class="cls-4" d="M317.12,474.71h-176a5.16,5.16,0,0,1,0-10.32h176a5.16,5.16,0,0,1,0,10.32Z"/><path class="cls-4" d="M229.11,552.14a5.12,5.12,0,0,1-5.06-5.16V474.71a5.06,5.06,0,1,1,10.11,0V547A5.11,5.11,0,0,1,229.11,552.14Z"/><path class="cls-4" d="M146,536.66H131V526.33h15c20.91,0,35.52-16.67,35.52-40.58v-11h10.11v11C191.63,515.26,172.45,536.66,146,536.66Z"/><path class="cls-4" d="M327.23,536.66h-15c-26.43,0-45.62-21.4-45.62-50.91v-11h10.1v11c0,23.9,14.6,40.58,35.52,40.58h15Z"/></svg>