<svg id="Laag_1" data-name="Laag 1" xmlns="http://www.w3.org/2000/svg" xmlns:xlink="http://www.w3.org/1999/xlink" viewBox="0 0 295.96 644"><defs><style>.cls-1,.cls-3{fill:none;}.cls-2{fill:#fff;}.cls-3{stroke:#fff;stroke-linecap:round;stroke-linejoin:round;stroke-width:8px;}.cls-4{clip-path:url(#clip-path);}</style><clipPath id="clip-path"><path class="cls-1" d="M145.17,364.15c-3-2.09-5.37-4.86-8.24-6.84-7.14-4.94-16.33-7.53-25-8.88-7.82-1.21-15.21-1.1-20.39-1.42-4-.25-3.65-.11-4,2.61-.45,3.13-.87,6.2-1.14,9.19-1.72,18.54-3.43,37.27-1.37,55.85,4.15,37.47,1.58,50.39-1.53,66-5.61,28.2-5.87,47.66-2.48,76.08,1.83,15.42,3.59,30.21,1,46.08-2,12.58-11.89,21.34-21.24,28.29-7.33,5.29,7.33,5.06,10.74,5.61,4.38.71,8,1.29,12.07-2,2.79-2.26,5.76-2.64,8.55-3s5.35-.68,5-6.81a192.46,192.46,0,0,1,1.49-35.67c1-23.43,10.14-44.14,12.37-67.49a137.92,137.92,0,0,0,.15-22.17c-.2-3.5-.19-1.74-2.24-4.06a3.43,3.43,0,0,1-.69-3.25,79.52,79.52,0,0,1,4.79-11.87c2.47-5,5.08-8.91,7.13-14.19,3.77-9.71,4.07-19.57,5.83-29.7,2.45-14.08,1.32-25.6,5.7-40.87.71-2.5,4.3-1.35,3.58,1.15a105.21,105.21,0,0,0-2.58,11.34c-1.68,9.74-1.38,8.21,1.58.28.69-1.84,1.39-3.68,2.09-5.54,4-10.6,8.16-21.47,10.54-33.35C147.71,365.09,148.31,366.34,145.17,364.15Zm122.69-34.46A49,49,0,0,0,264.75,340c-1.47,7.49,3.35,2.7,4.73-.23,4.11-10.12,8.31-8.54,9.35.24a60.92,60.92,0,0,1,.45,9.81,185.81,185.81,0,0,1-2,18.83c-1.42,10.18,4.74,10.47,6.14,3.17a151.78,151.78,0,0,0,2.25-31.93c-.56-20.53-5.27-37.34-8.92-57.11-2.45-13.26-4.49-24.3-11.15-42.58a179.76,179.76,0,0,0-9.52-18.53C252,215,251.51,209.1,251,202.55c-.79-9.38-2.95-18.47-7.44-26.66-2-3.59-.66-2-3.19-2.85a3.3,3.3,0,0,1-2.19-3.27c.18-4.78-1.2-11.39-2.41-16.41a59.92,59.92,0,0,0-5.05-14.09c-6.28-11.78-19.28-15.16-30.1-20.61-11.39-5.73-26.33-9.74-29.7-24.2a56.73,56.73,0,0,1-.67-19.2c1-6.72,1.92-7.05,4.55-8,3.61-1.25,4-6.56,4.69-9.94h0c.54-2.68.07-3.35-.39-4-1.2-1.72-2.39-3.41-1.62-8h0c2.76-20.28-6.86-38.71-27.27-38.71s-30,18.43-27.27,38.71h0a12.21,12.21,0,0,1,.07,4.5c-.83,4-3.07,2.61-1.92,8.27.75,3.71,1.46,7.22,3,8.41,3.26,2.53,4.32,1.2,6,8.26a17.25,17.25,0,0,0,5.81,9.49A16.59,16.59,0,0,0,147,88.19c4.1-.13,4.3,6.48.19,6.61A22.47,22.47,0,0,1,133,90.26c-2.66-2-2.1-2.93-2.57.8a34.31,34.31,0,0,1-1.16,5.7C125.31,110,97.39,122.4,85.94,127h0c-11.74,5-16.13,18.24-18.59,30.35-.84,4.16-1.73,8.11-1.57,12.43A3.32,3.32,0,0,1,63.67,173c-2.07.76-1.43-.17-2.83,2.59a43.51,43.51,0,0,0-3.58,10l-.07.27,0,0C53,197.47,55.4,209.39,47.9,221.63a181.84,181.84,0,0,0-9.53,18.53c-8.34,22.9-10.64,43.41-16,66.57a169.66,169.66,0,0,0-4,33.12,151.78,151.78,0,0,0,2.25,31.93c1.4,7.3,7.55,7,6.14-3.17-.89-6.4-1.55-11.34-1.86-15.8A62.37,62.37,0,0,1,25.13,340c1.17-9.22,7.43-8,10.44.36h0c2.52,6.24,4.68,4.28,3.67-1.08a47.44,47.44,0,0,0-3.14-9.56,66.16,66.16,0,0,1-3.61-10.47c-.5-2.27-1.33-7.12.61-8.83,1.7-1.49,1.36.45,2.4-2.52A131.24,131.24,0,0,1,40.88,295c3.69-8.09,8-16,12-23.86C57.79,261.61,62.43,252,65,243.39a19.41,19.41,0,0,0-.22-10.74,3.28,3.28,0,0,1,3.1-4.39c2.08.1,1.18,1.56,2.45-1.5.82-2,1.68-3.94,2.55-5.92,1.55-3.55,3-7.08,4.45-10.69,3.06-7.72,6.14-15.45,8-23.62a64.15,64.15,0,0,0,1.79-15.11,3.12,3.12,0,1,1,6.24-.13,71.31,71.31,0,0,1-2,16.77c-.25,1.14-.54,2.3-.85,3.5-1.77,6.72-1.59,3.86.67,10.45a135.44,135.44,0,0,1,5.75,23.69A101.59,101.59,0,0,1,97.46,253v0c-1.15,8.5-.56,13.47.23,20,.27,2.31.57,4.79.83,7.61.46,5.18-1.51,4.43,3.58,5.9,28.65,8.26,71.65,7.17,100.19-1.43,4-1.21,2.78-.4,3.15-4.47.25-2.82.55-5.3.83-7.61.78-6.48,1.38-11.45.22-20v0a100.06,100.06,0,0,1,.62-27.56,124.4,124.4,0,0,1,5.45-21.92c2.76-7.85,2.82-4.34.71-12.52a75.12,75.12,0,0,1-2.67-19.72,3.12,3.12,0,1,1,6.24.13,64.15,64.15,0,0,0,1.79,15.11q.74,3.25,1.84,6.92c2.65,8.72,7,19.19,10.62,27.39.6,1.38,1.2,2.75,1.79,4.12,2.75,6.46,1.06,2.22,4.46,3.48a3.36,3.36,0,0,1,1.92,4.21,18.1,18.1,0,0,0-.87,5.42c0,4.6,1.65,8.91,3.3,13.07,5.24,13.16,12.43,25.39,18.63,38.05,1.54,3.14,5.4,12,5.61,12.46.88,2.1,1.69,4,2.37,5.85,1.34,3.57.83,1.22,2.68,3a3.4,3.4,0,0,1,1,2.22c.24,3.35-.82,7.55-2,11.21C269.36,325.86,268.67,327.8,267.86,329.69ZM40.77,312c-1.43,4.74-1.53,9,1,14.93,4.06,9.47,4.57,15.93,3.42,19.51s-4,5.46-7.45,4.4A8.78,8.78,0,0,1,33.71,348c-2.79-3.36-2.92-4.34-2.8.7,0,1.17.08,2.37.17,3.62.3,4.19.94,9,1.81,15.3,2.66,19.14-15.51,20.76-18.45,5.45a158.17,158.17,0,0,1-2.37-33.44,178,178,0,0,1,4.18-34.51c5.5-23.57,7.82-44.1,16.33-67.47l0-.1.07-.16a187.5,187.5,0,0,1,10-19.39c6.47-10.56,4.74-23.53,8.64-34.44a56.32,56.32,0,0,1,5.16-13.37,55,55,0,0,0,4.91-14.89c3-14.27,8.5-28.64,22.25-34.48l.07,0c10.1-4,37.39-15.72,40-27.74,1.22-5.56.86-12.15.2-16.86-.4-1.12-.22-2.33-3.48-4.31-3.56-2.69-4.52-7.43-5.53-12.43-.83-4.09-1.17-6.51,1.33-10.09.39-.56.77-1.1.47-2.91v-.11C113.34,21.91,125.88,0,150.16,0S187,21.91,183.61,46.37v.11c-.3,1.81.08,2.35.47,2.91,1.3,1.86,2.63,3.75,1.49,9.35h0c-.93,4.61-1.8,10.24-5.68,13.17-3.8,1.58-3.16,1.94-3.47,4.31a48.94,48.94,0,0,0,.54,16.66c2.63,11.26,16.76,15,26.3,19.8,12.63,6.36,25.5,9.53,32.87,23.35,3.39,6.36,5.39,13.71,6.8,20.9a41.16,41.16,0,0,0,5.28,14.31c5.5,9.85,8,19.3,9,30.74.48,5.67.92,10.82,4.13,16.05a187.42,187.42,0,0,1,10,19.39l.08.16,0,.1c6.91,19,9,30.24,11.51,43.79,3.73,20.18,8.44,37.2,9,58.19a158.84,158.84,0,0,1-2.37,33.44c-2.94,15.31-21.11,13.69-18.46-5.45.84-6,1.69-12,2-18.13.42-9.54.13-4.73-2.87-1.35a9.55,9.55,0,0,1-4,2.71c-3.41,1.06-6.33-.94-7.44-4.4-2.59-8.08,3.18-16.48,4.85-24.12,1.4-6.44-.43-11-3.37-18-.9-2.16-3.68-8.48-5.56-12.31-6.31-12.89-13.6-25.3-18.89-38.73a85.56,85.56,0,0,1-3.94-12.39c-1.22-5.37-3.8-11.29-6.42-17.28-1.74-4-3.34-7.94-4.93-11.93-2.73-6.83-2.14-7.49-4.18.23a137.88,137.88,0,0,0-3,14.58,93.5,93.5,0,0,0-.6,25.61h0c1.27,9.33.62,14.7-.23,21.71-.26,2.21-.55,4.6-.8,7.4-.41,4.5,1.38,7.39,2.37,11.49a51.06,51.06,0,0,1,1.28,9.42c.7,9.94,2.57,19.73,4.39,29.49,1,5.55,2.06,11.07,2.89,16.55A364.1,364.1,0,0,1,226,386.45a190.81,190.81,0,0,1-.75,29c-4,36.43-1.57,48.87,1.43,63.93,5.75,28.93,6,49.08,2.55,78.25-1.77,14.89-3.47,29.18-1.06,44.13a27.44,27.44,0,0,0,6.78,13.46,73.27,73.27,0,0,0,11.89,10.53c3.07,2.28,4.7,4.56,5.3,6.68,1.84,7.17-3.94,10.78-11.51,10.05-1.94.11-5.4.57-7.2.86-5.81.94-10.59,1.71-16.79-3.31-1.42-1.15-3.52-1.42-5.49-1.66-6-.75-11.24-1.41-10.47-13.8a153.12,153.12,0,0,0,.09-17.26c-.64-13.35-2.71-32.86-6-45.22-4.72-18-7-29.74-8-39.62s-.54-17.87.13-28.24c-.09-10.8-5.35-16.45-8.83-25.43-3-7.8-3.88-14.35-4.83-21.62-.39-3-.79-6.1-1.37-9.41-1.91-11-5.91-21.54-10-32.37-2.92-7.7-5.9-15.54-8.27-23.87-2.12-7.42-1.15-7.45-3.26,0-2.38,8.35-5.35,16.2-8.28,23.9C138,416.2,134,426.74,132,437.74c-1.87,10.75-2.15,20.6-6.19,31-1.91,4.91-4.46,8.9-6.44,13.63a30.06,30.06,0,0,0-2.4,11.8c.68,10.37,1.09,18.28.14,28.24-2.22,23.23-11.43,44.23-12.36,67.25v.15l0,.14a184.85,184.85,0,0,0-1.45,34.56c.77,12.39-4.47,13.05-10.48,13.8-2,.25-4.07.51-5.48,1.66-6.21,5-11,4.25-16.8,3.31s-21.48-1.08-18.7-10.91c.6-2.12,2.23-4.4,5.29-6.68,7.8-5.8,16.44-12.31,18.67-24,2.42-15,.72-29.24-1.06-44.13-3.47-29.17-3.19-49.32,2.56-78.25,3-15.06,5.47-27.5,1.43-63.93-2.11-19.06-.39-38.23,1.37-57.23.81-8.74,2.47-17.62,4.14-26.58,1.6-8.58,3.21-17.23,4.07-25.56.66-6.55.7-11.14,2.83-17.46a16.18,16.18,0,0,0,1.14-7.38c-.25-2.8-.54-5.19-.81-7.4-.84-7-1.49-12.38-.22-21.71h0a94.09,94.09,0,0,0-.53-25.39,135.3,135.3,0,0,0-2.94-14.55c-2.15-8.3-1.57-7.35-4.5,0-1.54,3.85-3.1,7.62-4.76,11.41-2.61,6-5.2,11.91-6.41,17.28-2.59,11.47-8.24,22.79-13.66,33.36-4,7.69-8.08,15.49-11.78,23.44A102.1,102.1,0,0,0,40.77,312ZM178.66,440c0,.12,0,.24,0,.36.3,2,.56,4,.81,5.92.88,6.83,1.68,13,4.4,20,2,5.09,4.75,9.34,7.13,14.17a81.34,81.34,0,0,1,4.79,11.84,3.44,3.44,0,0,1-.82,3.41c-2.08,2.1-1.81-1.2-2.13,4.23a138.19,138.19,0,0,0,.17,21.89c.91,9.49,3.15,20.9,7.78,38.51C204.65,575,206.25,591.77,207,607a161.14,161.14,0,0,1-.09,18c-.38,6.13,2.11,6.45,5,6.81s5.76.72,8.54,3c4.09,3.3,7.69,2.72,12.07,2a29.16,29.16,0,0,1,8.62-.55c4.51.39,7-1.47,2.12-5.06a79.86,79.86,0,0,1-12.89-11.49c-4.08-4.73-7.28-10.25-8.34-16.8-2.57-15.87-.81-30.66,1-46.08,3.39-28.42,3.12-47.88-2.48-76.08-3.11-15.64-5.68-28.56-1.53-66a183.64,183.64,0,0,0,.73-27.93c-.48-11.76-1.33-25.63-3.26-37.27-.45-2.65.17-2.45-3.69-2.45-14.77,0-33.23,1.77-45.57,10.3-3,2.09-5.29,5.07-8.41,7.12s-2.58.41-1.64,5.12c2.39,11.91,6.51,22.77,10.53,33.35q.94,2.48,1.87,4.94c3.71,9.88,4.26,12.21,2-.33-.31-1.73-.66-3.49-1.07-5.28s-.87-3.56-1.4-5.4a1.89,1.89,0,1,1,3.59-1.15c3.36,11.73,4.1,21.5,4.88,31.86.31,4,.62,8.15,1.09,12.45Zm25.74,73.17c-.78-2.48,2.78-3.72,3.55-1.24,2.81,8.9,2.56,22.65.13,31.64-.67,2.51-4.29,1.42-3.61-1.09C206.69,534.22,207,521.34,204.4,513.16Zm-108-1.24c.77-2.48,4.33-1.24,3.55,1.24-2.57,8.18-2.3,21.06-.07,29.31.68,2.51-2.94,3.6-3.61,1.09C93.84,534.57,93.59,520.82,96.4,511.92Zm115.49-25.15c.85-2.46,4.37-1.09,3.52,1.37v0c-1.78,5.11-8.2,6.55-12.64,4.84l0,0c-2.32-.89-1-4.62,1.28-3.73h0c2.44.95,6.81.47,7.84-2.47Zm-111.6,6.31c-4.41,1.38-10.47.15-12.33-4.68-1.06-2.76,2.42-4,3.33-1.88,1.31,3.06,4.79,3.86,7.73,2.82S102.49,492.39,100.29,493.08Zm82.89-257.32c.47-2.2,3.89-1.82,3.69.46-.6,6.81-13.51,9.9-18.36,8.85-2.42-.52-1.67-4.41.75-3.88C172.61,241.91,182.28,239.88,183.18,235.76Zm3.68-18.51c-.62,6.48-13.38,9.69-18.35,8.62-2.42-.52-1.67-4.41.75-3.88,2.9.62,13-1.55,13.84-5S187.05,215.18,186.86,217.25Zm-67.7,19.2a1.88,1.88,0,0,1,3.7-.64c.75,3.93,10.74,6.06,13.9,5.38,2.42-.53,3.17,3.36.75,3.88C132.54,246.14,119.78,242.93,119.16,236.45Zm32-23.81a1.88,1.88,0,1,1,3.75,0l0,36.94a1.87,1.87,0,1,1-3.74,0Zm-32,4.61a1.88,1.88,0,0,1,3.69-.67c.93,4.08,10.53,6.13,13.91,5.41,2.42-.53,3.17,3.36.75,3.88C132.48,227,119.78,223.7,119.16,217.25Zm34,47.19c1.72,0,3.11,1,3.11,2.25s-1.39,2.25-3.11,2.25-3.12-1-3.12-2.25S151.41,264.44,153.13,264.44Zm18.14-152.26c1.59-2,4.46.57,2.87,2.57-4.06,5.08-14.39,5.58-15,9.67a1.88,1.88,0,1,1-3.72-.57C156.59,115.78,167.05,117.47,171.27,112.18Zm-42,2.57c-1.59-2,1.27-4.56,2.86-2.57,4.23,5.29,14.69,3.6,15.81,11.67a1.88,1.88,0,1,1-3.71.57C143.67,120.33,133.34,119.83,129.28,114.75Zm17.37,245.82c4.44,3.22,6.06,3.31,10.51.22a20.29,20.29,0,0,0,8.47-11.53,29.32,29.32,0,0,0,1-10.07,1.88,1.88,0,1,1,3.73-.37,33.59,33.59,0,0,1-.72,9.73c-.83,3.75-1.85,3.52,2,1.73,12.31-5.8,27.33-7.22,40.83-7.24,3.45,0,2.87,0,2.51-2.43-.38-2.58-.94-5.15-1.43-7.73-1.87-10-3.76-20.08-4.48-30.29a45.59,45.59,0,0,0-1.11-8.25c-.25-1.06-.59-2.09-.92-3.11-1.3-3.9-.4-3.33-4.19-2.21-29.19,8.67-72.84,9.72-102.07,1.2-3.92-1.15-3.28-1.49-4.48,3.1s-1.24,8.4-1.76,13.43c-.89,8.72-2.52,17.46-4.14,26.13-.41,2.22-.78,4.46-1.23,6.66-.59,2.87-.58,3.5,2.67,3.5a137.35,137.35,0,0,1,20.61,1.46,73.81,73.81,0,0,1,20.22,5.86c3.62,1.72,2.65,1.91,1.84-1.67a33.33,33.33,0,0,1-.75-9.87,1.88,1.88,0,1,1,3.73.37,27.8,27.8,0,0,0,.83,9.27A19.72,19.72,0,0,0,146.65,360.57Zm44.82-182.41a2.57,2.57,0,1,1-2.42,2.57A2.5,2.5,0,0,1,191.47,178.16Zm-77.16,0a2.57,2.57,0,1,1-2.42,2.57A2.5,2.5,0,0,1,114.31,178.16Zm35.79-26a1.88,1.88,0,1,1,3.76,0v20.51a1.88,1.88,0,1,1-3.76,0Zm53,27.74c1-2.4,4.41-.86,3.45,1.54-7.06,17.73-37.14,14.48-48.29,4.09-1.86-1.72.63-4.71,2.48-3C170,191.08,197.18,194.8,203.13,179.85ZM97.38,181.41c-1-2.39,2.45-4,3.44-1.58,6.22,15,34.54,11.27,44.15,2.65,1.89-1.69,4.31,1.34,2.43,3C135.86,195.86,104.74,199.21,97.38,181.41Z"/></clipPath></defs><title>dude</title><path class="cls-2" d="M224.61,442.49H165.75a3.25,3.25,0,0,1-3.14-2.53l-8.76-37.41a.47.47,0,0,0-.94,0L144.14,440a3.27,3.27,0,0,1-3.15,2.53H82.12a3.18,3.18,0,0,1-2.32-1,3.39,3.39,0,0,1-.91-2.44l6.19-151.84a3.27,3.27,0,0,1,3.23-3.16H218.42a3.25,3.25,0,0,1,3.23,3.16l6.2,151.84a3.37,3.37,0,0,1-.9,2.44A3.28,3.28,0,0,1,224.61,442.49Zm-56.3-6.6h52.92L215.3,290.65H91.41L85.48,435.89h52.93l8.2-34.88a6.88,6.88,0,0,1,13.5,0Z"/><path class="cls-2" d="M214.73,303.85H91.94a3.3,3.3,0,0,1,0-6.6H214.73a3.3,3.3,0,0,1,0,6.6Z"/><path class="cls-2" d="M153.33,353.37a3.28,3.28,0,0,1-3.23-3.3V303.85a3.23,3.23,0,1,1,6.46,0v46.22A3.27,3.27,0,0,1,153.33,353.37Z"/><path class="cls-2" d="M95.08,343.46h-9.6v-6.6h9.6c13.36,0,22.71-10.66,22.71-25.95v-7.06h6.46v7.06C124.25,329.78,112,343.46,95.08,343.46Z"/><path class="cls-2" d="M221.19,343.46h-9.6c-16.9,0-29.18-13.68-29.18-32.55v-7.06h6.47v7.06c0,15.28,9.33,25.95,22.71,25.95h9.6Z"/><polyline class="cls-3" points="90.4 163.76 90.4 284.63 217.03 284.63 217.03 163.76"/><polyline class="cls-3" points="90.4 182.47 47.86 319.13 4 311.5 60.9 137.14"/><polyline class="cls-3" points="217.75 182.47 252.87 311.5 291.96 304.83 247.25 137.14"/><path class="cls-3" d="M189.69,108.36h18.7c36.7,0,38.14,28.06,38.14,28.06"/><path class="cls-3" d="M60.9,136.42S66.65,108.36,99,108.36h18.71"/><path class="cls-3" d="M117.74,110.52s0,30.93,36,30.93c35.26,0,35.26-29.9,35.26-29.9"/><g class="cls-4"><rect class="cls-2" x="43.09" y="442.13" width="242.19" height="231.7"/><rect class="cls-2" x="-21.18" y="318.44" width="76.56" height="64.26" transform="translate(63.2 2.62) rotate(10.34)"/><rect class="cls-2" x="252.87" y="310.96" width="62.16" height="86.86" transform="translate(-51.26 48.03) rotate(-8.87)"/><rect class="cls-2" x="112.7" y="-90.88" width="80.09" height="218.35" rx="31.57"/></g></svg>