<svg id="Laag_1" data-name="Laag 1" xmlns="http://www.w3.org/2000/svg" viewBox="0 0 301.4 301.54"><defs><style>.cls-1{fill:#f5fafd;}</style></defs><title>sun</title><path class="cls-1" d="M150.77,87.32a63.45,63.45,0,1,0,63.45,63.45A63.63,63.63,0,0,0,150.77,87.32Zm0,105a41.56,41.56,0,1,1,41.56-41.56A41.71,41.71,0,0,1,150.77,192.33Z"/><path class="cls-1" d="M152.67,71.78h.64a2.9,2.9,0,0,0,2.54-1.27,3.45,3.45,0,0,0,.63-3.49,28.55,28.55,0,0,1-1.59-14.28c1-4.12,2.22-7,4.76-9.51,6-7.3,8.57-17.13,6.35-25.38C164.09,9,157.11,1.67,148.87.08a3,3,0,0,0-3.18,1.27,3.45,3.45,0,0,0-.63,3.49,28.56,28.56,0,0,1,1.59,14.28c-1,4.12-2.22,7-4.76,9.51-6,7.3-8.57,17.13-6.35,25.7C137.45,62.9,144.43,70.51,152.67,71.78Z"/><path class="cls-1" d="M81.3,38.79c1.26,3.8,1.58,7.29.63,10.46-1.59,9.52.95,19,7.3,25.38,6.34,7,15.86,9.84,23.79,7,.32,0,.32-.31.63-.31,1-.64,1.59-1.27,1.59-2.23A3,3,0,0,0,114,75.9a27.33,27.33,0,0,1-8.56-11.74c-1.27-3.8-1.59-7.29-.64-10.46,1.59-9.2-1-19-7.3-25.38-6.34-7-15.86-9.84-23.79-7a3.07,3.07,0,0,0-2.22,2.54,3,3,0,0,0,1.27,3.17A25,25,0,0,1,81.3,38.79Z"/><path class="cls-1" d="M21.34,82.56a24.9,24.9,0,0,1,13,6c2.86,2.86,4.76,5.39,5.71,8.88a29.65,29.65,0,0,0,19,18.4c8.88,2.86,18.72.32,24.11-5.71,0-.31.32-.31.32-.63a3.39,3.39,0,0,0-2.22-5.08,24.81,24.81,0,0,1-13-6,23.34,23.34,0,0,1-6-8.89,29.68,29.68,0,0,0-19-18.4c-8.89-2.85-18.72-.63-24.11,5.71a4.42,4.42,0,0,0-.64,3.49A4,4,0,0,0,21.34,82.56Z"/><path class="cls-1" d="M54,166c8.89-1.91,16.5-8.89,17.77-17.13v-.64a2.9,2.9,0,0,0-1.27-2.54,3.45,3.45,0,0,0-3.49-.63,28.55,28.55,0,0,1-14.28,1.59c-4.12-1-7-2.22-9.51-4.76-7.3-6-17.13-8.57-25.38-6.35C9,137.45,1.67,144.43.08,152.67a3,3,0,0,0,1.27,3.18,3.45,3.45,0,0,0,3.49.63,28.56,28.56,0,0,1,14.28-1.59c4.12,1,7,2.22,9.51,4.76C35.61,165.68,45.45,168.22,54,166Z"/><path class="cls-1" d="M81.61,188.52c0-.32-.31-.32-.31-.63-.64-.95-1.27-1.59-2.23-1.59a3,3,0,0,0-3.17,1.27,27.33,27.33,0,0,1-11.74,8.56c-3.8,1.27-7.29,1.59-10.46.64-9.2-1.59-19,.95-25.38,7.3-7,6.34-9.84,15.86-7,23.79a3.07,3.07,0,0,0,2.54,2.22,3,3,0,0,0,3.17-1.27,27.44,27.44,0,0,1,11.74-8.57c3.8-1.26,7.29-1.58,10.46-.63,9.52,1.59,19-1,25.38-7.3C81.3,206.29,84.47,196.45,81.61,188.52Z"/><path class="cls-1" d="M109.21,217.71a3.37,3.37,0,0,0-5.07,2.22,24.9,24.9,0,0,1-6,13,23.3,23.3,0,0,1-8.88,6,29.62,29.62,0,0,0-18.4,19c-2.86,8.88-.64,18.71,5.71,24.11a4.41,4.41,0,0,0,3.49.63,3.08,3.08,0,0,0,2.22-2.54,24.81,24.81,0,0,1,6-13c2.86-2.86,5.4-4.76,8.89-5.71a29.69,29.69,0,0,0,18.4-19c2.85-8.88.31-18.72-5.71-24.11Z"/><path class="cls-1" d="M148.87,229.76h-.64a2.9,2.9,0,0,0-2.54,1.27,3.45,3.45,0,0,0-.63,3.49,28.55,28.55,0,0,1,1.59,14.28c-1,4.12-2.22,7-4.76,9.51-6,7.3-8.57,17.13-6.35,25.38,1.91,9.2,8.89,16.5,17.13,17.77a3,3,0,0,0,3.18-1.27,3.45,3.45,0,0,0,.63-3.49,28.56,28.56,0,0,1-1.59-14.28c1-4.12,2.22-7,4.76-9.51,6-7.3,8.57-17.13,6.35-25.7C164.09,238.64,157.11,231,148.87,229.76Z"/><path class="cls-1" d="M220.24,262.75c-1.26-3.8-1.58-7.29-.63-10.46,1.59-9.52-1-19-7.3-25.38-6.34-7-15.86-9.84-23.79-7-.32,0-.32.31-.63.31-.95.64-1.59,1.27-1.59,2.23a3,3,0,0,0,1.27,3.17,27.33,27.33,0,0,1,8.56,11.74c1.27,3.8,1.59,7.29.64,10.46-1.59,9.52.95,19,7.3,25.38,6.34,7,15.86,9.84,23.79,7a3.07,3.07,0,0,0,2.22-2.54,3,3,0,0,0-1.27-3.17A25,25,0,0,1,220.24,262.75Z"/><path class="cls-1" d="M280.2,219a24.9,24.9,0,0,1-13-6c-2.86-2.86-4.76-5.39-5.71-8.88a29.65,29.65,0,0,0-19-18.4c-8.88-2.86-18.72-.32-24.11,5.71,0,.31-.32.31-.32.63a3.39,3.39,0,0,0,2.22,5.08,24.81,24.81,0,0,1,13,6,23.34,23.34,0,0,1,6,8.89,29.68,29.68,0,0,0,19,18.4c8.89,2.85,18.72.63,24.11-5.71a4.38,4.38,0,0,0,.64-3.49A4,4,0,0,0,280.2,219Z"/><path class="cls-1" d="M300.19,145.69a3.45,3.45,0,0,0-3.49-.63,28.56,28.56,0,0,1-14.28,1.59c-4.12-1-7-2.22-9.51-4.76-7.3-6-17.13-8.57-25.7-6.35-8.88,1.91-16.5,8.89-17.77,17.13v.64a2.9,2.9,0,0,0,1.27,2.54,3.46,3.46,0,0,0,3.49.63,28.56,28.56,0,0,1,14.28-1.59c4.12,1,7,2.22,9.52,4.76,7.29,6,17.13,8.57,25.38,6.35,9.19-1.91,16.49-8.89,17.76-17.13C301.77,147.91,301.14,146.65,300.19,145.69Z"/><path class="cls-1" d="M219.93,113c0,.32.31.32.31.63.64,1,1.27,1.59,2.23,1.59a3,3,0,0,0,3.17-1.27,27.33,27.33,0,0,1,11.74-8.56c3.8-1.27,7.29-1.59,10.46-.64,9.2,1.59,19-1,25.38-7.3,7-6.34,9.84-15.86,7-23.79a3.07,3.07,0,0,0-2.54-2.22,3,3,0,0,0-3.17,1.27,27.44,27.44,0,0,1-11.74,8.57c-3.8,1.26-7.29,1.58-10.46.63-9.52-1.59-19,.95-25.38,7.3C220.24,95.25,217.07,105.09,219.93,113Z"/><path class="cls-1" d="M192.33,83.83a3.37,3.37,0,0,0,5.07-2.22,24.9,24.9,0,0,1,6-13,23.3,23.3,0,0,1,8.88-6,29.62,29.62,0,0,0,18.4-19c2.86-8.88.64-18.71-5.71-24.11a4.41,4.41,0,0,0-3.49-.63,3.08,3.08,0,0,0-2.22,2.54,24.81,24.81,0,0,1-6,13c-2.86,2.86-5.4,4.76-8.89,5.71a29.69,29.69,0,0,0-18.4,19c-2.85,8.88-.31,18.72,5.71,24.11Z"/></svg>